<svg version="1.1" id="Layer_1" xmlns="http://www.w3.org/2000/svg" xmlns:xlink="http://www.w3.org/1999/xlink" x="0px" y="0px"
	 width="100%" viewBox="0 0 640 640" enable-background="new 0 0 640 640" xml:space="preserve">
<path fill="#FFFFFF" opacity="1.000000" stroke="none" 
	d="
M373.000000,641.000000 
	C248.666687,641.000000 124.833374,641.000000 1.000050,641.000000 
	C1.000033,427.666718 1.000033,214.333450 1.000017,1.000136 
	C214.333237,1.000090 427.666473,1.000090 640.999756,1.000045 
	C640.999878,214.333191 640.999878,427.666382 640.999939,640.999756 
	C551.833313,641.000000 462.666656,641.000000 373.000000,641.000000 
M285.054382,125.025261 
	C255.111832,125.049316 225.169281,125.073372 194.472488,125.096611 
	C189.046478,126.571663 183.262756,127.304359 178.282364,129.704208 
	C171.618866,132.915070 164.266296,135.437027 159.723724,142.069901 
	C158.451630,143.927368 156.327072,145.194595 155.018600,147.034790 
	C151.270645,152.305862 147.152939,157.442551 144.321304,163.193710 
	C142.260651,167.378967 142.011658,172.456238 140.358902,177.680435 
	C140.234451,179.492126 140.003403,181.303711 140.001282,183.115540 
	C139.959061,219.084381 139.943344,255.053238 139.298828,290.963043 
	C138.883713,290.923584 138.468582,290.884125 137.830856,290.559570 
	C137.538467,290.662292 137.246078,290.765015 136.106995,290.968292 
	C112.961937,292.364319 95.123199,311.039520 95.098740,334.273468 
	C95.023849,405.416840 95.067276,476.560333 95.075958,547.703796 
	C95.076134,549.159851 95.213249,550.615967 95.300003,552.341125 
	C97.014481,552.437927 98.477432,552.592529 99.940414,552.592773 
	C170.417419,552.604370 240.894455,552.627136 311.371368,552.542664 
	C315.657928,552.537476 320.085571,552.204712 324.205353,551.111633 
	C343.973053,545.866455 355.636749,530.387329 357.981964,508.020172 
	C389.980652,508.008728 421.979340,507.997253 454.766357,507.903809 
	C459.318573,506.875610 463.900665,505.962891 468.416565,504.794403 
	C476.988586,502.576355 483.917969,497.535645 490.458862,491.796753 
	C502.690521,481.064728 510.485992,467.690491 510.812347,451.444702 
	C511.450958,419.655975 511.022583,387.845306 510.958649,356.043884 
	C510.953339,353.400543 511.055084,351.110962 514.700684,349.856262 
	C532.886658,344.701874 547.357544,327.439453 547.153503,303.796997 
	C546.553955,234.319473 546.939819,164.833481 546.939880,95.350807 
	C546.939880,93.555840 546.939880,91.760864 546.939880,89.761482 
	C545.383545,89.594780 544.257568,89.368843 543.131531,89.368591 
	C471.982605,89.352623 400.833374,89.229782 329.684998,89.428894 
	C307.103394,89.492081 290.036163,103.810501 285.997864,125.011909 
	C285.997864,125.011909 285.989960,124.989288 285.054382,125.025261 
z"/>
<path fill="#FCFCF6" opacity="1.000000" stroke="none" 
	d="
M140.954956,177.135803 
	C142.011658,172.456238 142.260651,167.378967 144.321304,163.193710 
	C147.152939,157.442551 151.270645,152.305862 155.018600,147.034790 
	C156.327072,145.194595 158.451630,143.927368 159.723724,142.069901 
	C164.266296,135.437027 171.618866,132.915070 178.282364,129.704208 
	C183.262756,127.304359 189.046478,126.571663 195.122864,125.374451 
	C196.422775,125.756058 197.072311,125.950325 197.721893,125.950584 
	C225.924881,125.961617 254.127884,125.967484 282.330750,125.910690 
	C283.551086,125.908234 284.770264,125.309990 285.989960,124.989288 
	C285.989960,124.989288 285.997864,125.011909 286.450989,125.093460 
	C361.492493,125.175011 436.080841,125.175011 510.999786,125.175011 
	C510.999786,128.062088 510.999847,130.047760 510.999847,132.033447 
	C510.999603,202.697372 510.999237,273.361298 510.999237,344.025238 
	C510.999237,345.191864 510.617554,346.563751 511.102539,347.472290 
	C511.686554,348.566223 513.008240,349.266327 514.010620,350.136902 
	C511.055084,351.110962 510.953339,353.400543 510.958649,356.043884 
	C511.022583,387.845306 511.450958,419.655975 510.812347,451.444702 
	C510.485992,467.690491 502.690521,481.064728 490.458862,491.796753 
	C483.917969,497.535645 476.988586,502.576355 468.416565,504.794403 
	C463.900665,505.962891 459.318573,506.875610 454.312805,507.576141 
	C451.083191,507.165710 448.307068,507.009705 445.531036,507.011444 
	C415.919403,507.030090 386.307739,507.073700 356.246521,507.107025 
	C286.206360,507.094177 216.615829,507.086395 147.025284,507.067261 
	C145.032440,507.066711 143.039627,506.945740 141.033539,506.438354 
	C140.766876,502.660736 140.513443,499.325684 140.204239,495.525848 
	C140.185654,476.710449 140.222839,458.359894 140.496780,439.701752 
	C140.575699,436.592987 140.417862,433.791809 140.204254,430.525787 
	C140.185684,391.711243 140.222916,353.361511 140.477875,314.779633 
	C140.550461,313.361023 140.405304,312.174591 140.204315,310.523865 
	C140.184250,304.043243 140.220001,298.026917 140.500061,291.678101 
	C140.826370,290.689545 140.980118,290.033508 140.980118,289.377441 
	C140.979843,251.963562 140.966766,214.549683 140.954956,177.135803 
M459.092987,406.623627 
	C497.335510,348.555725 492.978912,270.402588 448.463348,215.938019 
	C406.129059,164.142197 334.534607,144.462540 272.844055,167.664337 
	C194.915588,196.973206 152.788895,277.522888 173.054688,358.469788 
	C192.629150,436.655396 266.321533,487.314941 346.163818,477.063660 
	C394.153442,470.902039 431.675629,447.399597 459.092987,406.623627 
z"/>
<path fill="#0358FC" opacity="1.000000" stroke="none" 
	d="
M140.260040,440.009308 
	C140.222839,458.359894 140.185654,476.710449 140.089081,495.966980 
	C140.368744,500.208954 140.707779,503.544922 141.046799,506.880920 
	C143.039627,506.945740 145.032440,507.066711 147.025284,507.067261 
	C216.615829,507.086395 286.206360,507.094177 356.308289,507.356323 
	C356.897186,507.761505 356.974701,507.913910 357.052246,508.066315 
	C355.636749,530.387329 343.973053,545.866455 324.205353,551.111633 
	C320.085571,552.204712 315.657928,552.537476 311.371368,552.542664 
	C240.894455,552.627136 170.417419,552.604370 99.940414,552.592773 
	C98.477432,552.592529 97.014481,552.437927 95.300003,552.341125 
	C95.213249,550.615967 95.076134,549.159851 95.075958,547.703796 
	C95.067276,476.560333 95.023849,405.416840 95.098740,334.273468 
	C95.123199,311.039520 112.961937,292.364319 136.806946,290.985260 
	C137.689072,290.949707 137.871262,290.897217 138.053467,290.844696 
	C138.468582,290.884125 138.883713,290.923584 139.655701,291.252960 
	C140.093643,291.698792 140.174698,291.854675 140.255753,292.010559 
	C140.220001,298.026917 140.184250,304.043243 140.089386,310.916534 
	C140.106888,312.852905 140.183502,313.932343 140.260132,315.011780 
	C140.222916,353.361511 140.185684,391.711243 140.088867,430.964752 
	C140.106201,434.582123 140.183121,437.295715 140.260040,440.009308 
z"/>
<path fill="#FCBF03" opacity="1.000000" stroke="none" 
	d="
M514.355652,349.996582 
	C513.008240,349.266327 511.686554,348.566223 511.102539,347.472290 
	C510.617554,346.563751 510.999237,345.191864 510.999237,344.025238 
	C510.999237,273.361298 510.999603,202.697372 510.999847,132.033447 
	C510.999847,130.047760 510.999786,128.062088 510.999786,125.175011 
	C436.080841,125.175011 361.492493,125.175011 286.438843,125.094421 
	C290.036163,103.810501 307.103394,89.492081 329.684998,89.428894 
	C400.833374,89.229782 471.982605,89.352623 543.131531,89.368591 
	C544.257568,89.368843 545.383545,89.594780 546.939880,89.761482 
	C546.939880,91.760864 546.939880,93.555840 546.939880,95.350807 
	C546.939819,164.833481 546.553955,234.319473 547.153503,303.796997 
	C547.357544,327.439453 532.886658,344.701874 514.355652,349.996582 
z"/>
<path fill="#C4D8EE" opacity="1.000000" stroke="none" 
	d="
M140.500061,291.678101 
	C140.174698,291.854675 140.093643,291.698792 139.967407,291.282471 
	C139.943344,255.053238 139.959061,219.084381 140.001282,183.115540 
	C140.003403,181.303711 140.234451,179.492126 140.656937,177.408112 
	C140.966766,214.549683 140.979843,251.963562 140.980118,289.377441 
	C140.980118,290.033508 140.826370,290.689545 140.500061,291.678101 
z"/>
<path fill="#E8E8E8" opacity="1.000000" stroke="none" 
	d="
M357.517090,508.043243 
	C356.974701,507.913910 356.897186,507.761505 356.757874,507.359772 
	C386.307739,507.073700 415.919403,507.030090 445.531036,507.011444 
	C448.307068,507.009705 451.083191,507.165710 453.918640,507.617126 
	C421.979340,507.997253 389.980652,508.008728 357.517090,508.043243 
z"/>
<path fill="#EFE1A1" opacity="1.000000" stroke="none" 
	d="
M285.522156,125.007271 
	C284.770264,125.309990 283.551086,125.908234 282.330750,125.910690 
	C254.127884,125.967484 225.924881,125.961617 197.721893,125.950584 
	C197.072311,125.950325 196.422775,125.756058 195.499969,125.374855 
	C225.169281,125.073372 255.111832,125.049316 285.522156,125.007271 
z"/>
<path fill="#C4D8EE" opacity="1.000000" stroke="none" 
	d="
M137.942169,290.702148 
	C137.871262,290.897217 137.689072,290.949707 137.230286,290.934998 
	C137.246078,290.765015 137.538467,290.662292 137.942169,290.702148 
z"/>
<path fill="#1D2124" opacity="1.000000" stroke="none" 
	d="
M458.905823,406.931213 
	C431.675629,447.399597 394.153442,470.902039 346.163818,477.063660 
	C266.321533,487.314941 192.629150,436.655396 173.054688,358.469788 
	C152.788895,277.522888 194.915588,196.973206 272.844055,167.664337 
	C334.534607,144.462540 406.129059,164.142197 448.463348,215.938019 
	C492.978912,270.402588 497.335510,348.555725 458.905823,406.931213 
M181.924805,315.835541 
	C182.009918,317.560028 182.095016,319.284485 182.000687,321.902466 
	C183.039520,330.965820 183.400574,340.170013 185.249268,349.065063 
	C190.045471,372.142212 199.181473,393.321808 214.999634,411.869171 
	C215.682007,412.530273 216.364380,413.191376 217.249908,414.501831 
	C251.215286,452.299927 293.443726,469.123749 344.060425,463.778168 
	C377.920135,460.202301 406.320831,445.177521 430.488312,420.625427 
	C431.229584,419.743530 431.970856,418.861664 433.307526,417.573517 
	C436.675781,413.445190 440.315796,409.507629 443.368805,405.157990 
	C465.531158,373.583435 474.565613,338.598358 470.150848,300.230194 
	C463.869934,245.643463 422.579803,188.179977 355.877472,174.691956 
	C298.173767,163.023544 239.616470,186.430725 207.350952,235.234756 
	C191.390717,259.375793 182.359360,285.821075 181.924805,315.835541 
z"/>
<path fill="#C4D8EE" opacity="1.000000" stroke="none" 
	d="
M141.033539,506.438354 
	C140.707779,503.544922 140.368744,500.208954 140.144867,496.431824 
	C140.513443,499.325684 140.766876,502.660736 141.033539,506.438354 
z"/>
<path fill="#C4D8EE" opacity="1.000000" stroke="none" 
	d="
M140.496780,439.701752 
	C140.183121,437.295715 140.106201,434.582123 140.144653,431.429565 
	C140.417862,433.791809 140.575699,436.592987 140.496780,439.701752 
z"/>
<path fill="#C4D8EE" opacity="1.000000" stroke="none" 
	d="
M140.477875,314.779633 
	C140.183502,313.932343 140.106888,312.852905 140.145203,311.380798 
	C140.405304,312.174591 140.550461,313.361023 140.477875,314.779633 
z"/>
<path fill="#F7F7F1" opacity="1.000000" stroke="none" 
	d="
M429.954895,420.869507 
	C406.320831,445.177521 377.920135,460.202301 344.060425,463.778168 
	C293.443726,469.123749 251.215286,452.299927 217.136780,413.819397 
	C216.751114,410.121460 216.739914,410.112000 214.854843,411.306030 
	C199.181473,393.321808 190.045471,372.142212 185.249268,349.065063 
	C183.400574,340.170013 183.039520,330.965820 182.436066,321.413879 
	C183.867661,320.036194 184.863892,319.147064 185.860123,318.257935 
	C184.617950,317.169708 183.375793,316.081482 182.133636,314.993256 
	C182.359360,285.821075 191.390717,259.375793 207.350952,235.234756 
	C239.616470,186.430725 298.173767,163.023544 355.877472,174.691956 
	C422.579803,188.179977 463.869934,245.643463 470.150848,300.230194 
	C474.565613,338.598358 465.531158,373.583435 443.368805,405.157990 
	C440.315796,409.507629 436.675781,413.445190 432.665741,417.783020 
	C431.334259,418.951538 430.644562,419.910522 429.954895,420.869507 
M424.872864,411.196594 
	C450.669006,381.639587 462.470215,347.270569 459.898346,308.129486 
	C458.682922,289.631592 453.237762,272.205322 444.936066,255.682892 
	C441.647644,249.138184 436.402832,246.037170 428.780396,246.243652 
	C415.628143,246.599930 402.459808,246.365692 389.298218,246.375122 
	C382.544983,246.379959 375.791779,246.375961 367.386505,246.375961 
	C377.612885,252.574738 376.949768,260.097900 373.650604,268.381500 
	C369.957672,277.653595 366.574829,287.048920 363.017731,296.375671 
	C362.517792,297.686584 361.794556,298.912323 360.830536,300.879852 
	C359.982208,298.974854 359.383148,297.842834 358.960815,296.648346 
	C354.802002,284.886200 350.480255,273.176544 346.601227,261.322296 
	C343.938202,253.184158 339.659576,245.484482 339.952545,236.419250 
	C339.999268,234.973755 336.586670,232.349960 334.557190,232.111694 
	C329.297211,231.494110 323.916260,231.942017 318.584320,231.890945 
	C314.046173,231.847473 312.670868,234.669662 312.124939,238.545059 
	C311.574921,242.449844 311.217743,246.463028 310.007507,250.178391 
	C306.299072,261.563171 302.237305,272.833282 298.281036,284.136810 
	C296.393311,289.530304 294.433502,294.898560 292.506378,300.278290 
	C292.045624,300.277191 291.584900,300.276093 291.124176,300.274994 
	C286.404205,287.223022 281.438843,274.251953 277.093719,261.076324 
	C275.514282,256.287048 277.775574,251.944031 281.835022,248.800247 
	C282.625183,248.188309 283.409027,247.568146 284.893219,246.405411 
	C264.744995,246.405411 245.598434,246.837173 226.484360,246.236023 
	C215.801590,245.900055 209.761658,250.580109 205.773224,259.865692 
	C199.351532,274.816315 195.059082,290.228119 193.424301,306.459503 
	C187.225143,368.009705 224.472290,427.157745 282.987305,447.146484 
	C294.507324,451.081696 306.964691,452.273102 319.168884,455.203217 
	C319.792175,455.097504 320.415497,454.991791 321.945496,454.700043 
	C343.799896,454.838470 364.818451,451.180756 384.657928,441.531311 
	C397.775635,435.151184 409.221649,426.519226 420.039093,417.478058 
	C423.615143,419.550293 425.438629,418.321838 427.466492,412.326050 
	C426.492126,412.159149 425.548737,411.997589 424.872864,411.196594 
M334.361359,181.962524 
	C287.250763,180.362823 249.112915,197.817780 219.067368,235.936157 
	C223.298645,235.936157 226.123932,235.625107 228.854370,236.001740 
	C234.326813,236.756622 237.952866,234.522766 241.772903,230.631058 
	C260.081055,211.979248 282.399841,200.548523 308.235138,196.923065 
	C349.487457,191.134155 384.726837,203.773880 414.100708,233.165527 
	C415.221100,234.286591 416.710571,235.671799 418.108032,235.767609 
	C422.840973,236.092056 427.609955,235.891373 433.602844,235.891373 
	C408.067932,202.932648 375.785706,185.023895 334.361359,181.962524 
M361.523499,226.929932 
	C364.120544,228.040115 366.803864,228.986954 369.293152,230.301254 
	C372.509857,231.999603 375.428864,235.220749 378.729401,235.603851 
	C385.831635,236.428284 393.095917,235.857071 401.690918,235.857071 
	C373.961975,210.591782 342.715607,202.850555 307.684143,207.930359 
	C286.516144,210.999878 257.806335,225.614426 253.253311,235.891357 
	C259.824127,235.891357 266.287811,235.939728 272.749329,235.843903 
	C273.830902,235.827881 275.025269,235.383896 275.962097,234.805176 
	C302.908691,218.158920 331.292114,216.650635 361.523499,226.929932 
M225.411163,411.482727 
	C225.411163,411.482727 225.523148,411.415619 225.411163,411.482727 
z"/>
<path fill="#EEEEE8" opacity="1.000000" stroke="none" 
	d="
M182.029221,315.414398 
	C183.375793,316.081482 184.617950,317.169708 185.860123,318.257935 
	C184.863892,319.147064 183.867661,320.036194 182.525772,320.967133 
	C182.095016,319.284485 182.009918,317.560028 182.029221,315.414398 
z"/>
<path fill="#F4F5EF" opacity="1.000000" stroke="none" 
	d="
M214.927246,411.587585 
	C216.739914,410.112000 216.751114,410.121460 217.035187,413.494690 
	C216.364380,413.191376 215.682007,412.530273 214.927246,411.587585 
z"/>
<path fill="#EEEFE8" opacity="1.000000" stroke="none" 
	d="
M430.221588,420.747467 
	C430.644562,419.910522 431.334259,418.951538 432.368042,417.986145 
	C431.970856,418.861664 431.229584,419.743530 430.221588,420.747467 
z"/>
<path fill="#1C2023" opacity="1.000000" stroke="none" 
	d="
M318.989746,454.729919 
	C306.964691,452.273102 294.507324,451.081696 282.987305,447.146484 
	C224.472290,427.157745 187.225143,368.009705 193.424301,306.459503 
	C195.059082,290.228119 199.351532,274.816315 205.773224,259.865692 
	C209.761658,250.580109 215.801590,245.900055 226.484360,246.236023 
	C245.598434,246.837173 264.744995,246.405411 284.893219,246.405411 
	C283.409027,247.568146 282.625183,248.188309 281.835022,248.800247 
	C277.775574,251.944031 275.514282,256.287048 277.093719,261.076324 
	C281.438843,274.251953 286.404205,287.223022 291.124176,300.274994 
	C291.584900,300.276093 292.045624,300.277191 292.506378,300.278290 
	C294.433502,294.898560 296.393311,289.530304 298.281036,284.136810 
	C302.237305,272.833282 306.299072,261.563171 310.007507,250.178391 
	C311.217743,246.463028 311.574921,242.449844 312.124939,238.545059 
	C312.670868,234.669662 314.046173,231.847473 318.584320,231.890945 
	C323.916260,231.942017 329.297211,231.494110 334.557190,232.111694 
	C336.586670,232.349960 339.999268,234.973755 339.952545,236.419250 
	C339.659576,245.484482 343.938202,253.184158 346.601227,261.322296 
	C350.480255,273.176544 354.802002,284.886200 358.960815,296.648346 
	C359.383148,297.842834 359.982208,298.974854 360.830536,300.879852 
	C361.794556,298.912323 362.517792,297.686584 363.017731,296.375671 
	C366.574829,287.048920 369.957672,277.653595 373.650604,268.381500 
	C376.949768,260.097900 377.612885,252.574738 367.386505,246.375961 
	C375.791779,246.375961 382.544983,246.379959 389.298218,246.375122 
	C402.459808,246.365692 415.628143,246.599930 428.780396,246.243652 
	C436.402832,246.037170 441.647644,249.138184 444.936066,255.682892 
	C453.237762,272.205322 458.682922,289.631592 459.898346,308.129486 
	C462.470215,347.270569 450.669006,381.639587 424.449768,411.626404 
	C422.657562,413.624023 421.288513,415.191864 419.919434,416.759705 
	C409.221649,426.519226 397.775635,435.151184 384.657928,441.531311 
	C364.818451,451.180756 343.799896,454.838470 321.262909,454.638794 
	C320.050140,454.628357 319.519928,454.679138 318.989746,454.729919 
M229.178162,304.311829 
	C225.593369,294.312073 222.008575,284.312347 218.075287,273.340515 
	C199.218826,311.188080 205.239273,381.766205 259.750458,419.778320 
	C309.841553,454.708221 379.343536,445.099640 416.503265,398.801544 
	C451.088959,355.710510 449.825745,298.062531 434.438873,274.571777 
	C433.968750,275.718964 433.482178,276.765320 433.103973,277.849457 
	C420.888031,312.866760 408.710754,347.897552 396.451904,382.899811 
	C393.982635,389.950226 391.635803,396.890900 397.333923,403.535736 
	C384.659271,414.459808 370.880646,421.823975 355.035156,426.716797 
	C345.612457,399.941895 336.278870,373.420166 326.945282,346.898468 
	C326.560028,346.920166 326.174774,346.941895 325.789520,346.963623 
	C316.448181,373.518921 307.106842,400.074188 297.742645,426.694366 
	C281.924194,421.580200 268.235962,413.968658 255.696716,403.449799 
	C260.195862,397.369476 259.158844,391.167725 256.941589,384.781433 
	C247.720718,358.222809 238.607834,331.626648 229.178162,304.311829 
M303.706024,365.236908 
	C311.104034,344.800964 318.502075,324.365051 326.397034,302.556427 
	C339.304352,338.251953 351.701324,372.536041 364.513092,407.967316 
	C372.795410,385.018250 380.646301,363.264557 388.497192,341.510895 
	C387.953522,341.231201 387.409851,340.951508 386.866180,340.671814 
	C379.465973,351.562683 372.065735,362.453552 364.224792,373.993073 
	C351.586823,338.323792 339.222504,303.426819 326.858185,268.529846 
	C326.486694,268.588531 326.115234,268.647217 325.743774,268.705933 
	C313.449585,303.439209 301.155365,338.172485 288.563660,373.746338 
	C284.214691,367.338806 280.352142,361.575104 276.412628,355.864441 
	C272.580658,350.309631 268.669922,344.809174 264.793762,339.284882 
	C264.392578,339.513031 263.991425,339.741211 263.590240,339.969391 
	C271.720642,362.258087 279.851013,384.546814 288.405975,407.999481 
	C293.702026,393.163483 298.556793,379.563721 303.706024,365.236908 
M277.683411,311.821503 
	C272.474426,298.523193 267.199310,285.250214 262.096466,271.911285 
	C260.552032,267.874115 257.973450,265.547729 253.769913,266.984802 
	C249.144653,268.566071 250.868515,272.189209 252.045944,275.328339 
	C257.294525,289.321289 262.567810,303.304962 267.832336,317.291962 
	C271.859741,327.992096 275.887390,338.692078 280.096741,349.875214 
	C284.618927,340.785950 287.849487,332.430054 282.136078,323.198120 
	C280.161987,320.008331 279.328857,316.112427 277.683411,311.821503 
M368.854248,328.368195 
	C366.544464,334.107971 368.104187,342.297760 372.974884,349.115967 
	C375.243835,343.184082 377.470978,337.465820 379.621918,331.719055 
	C386.793274,312.559143 393.912781,293.379761 401.117157,274.232330 
	C402.245178,271.234344 402.482544,268.459808 399.144165,267.055267 
	C395.969513,265.719635 393.262787,266.972656 391.537292,269.960236 
	C390.877350,271.102966 390.456512,272.389313 389.976105,273.629364 
	C383.005310,291.622589 376.042816,309.619049 368.854248,328.368195 
z"/>
<path fill="#1E2124" opacity="1.000000" stroke="none" 
	d="
M334.840729,181.974091 
	C375.785706,185.023895 408.067932,202.932648 433.602844,235.891373 
	C427.609955,235.891373 422.840973,236.092056 418.108032,235.767609 
	C416.710571,235.671799 415.221100,234.286591 414.100708,233.165527 
	C384.726837,203.773880 349.487457,191.134155 308.235138,196.923065 
	C282.399841,200.548523 260.081055,211.979248 241.772903,230.631058 
	C237.952866,234.522766 234.326813,236.756622 228.854370,236.001740 
	C226.123932,235.625107 223.298645,235.936157 219.067368,235.936157 
	C249.112915,197.817780 287.250763,180.362823 334.840729,181.974091 
z"/>
<path fill="#1E2225" opacity="1.000000" stroke="none" 
	d="
M361.156342,226.794952 
	C331.292114,216.650635 302.908691,218.158920 275.962097,234.805176 
	C275.025269,235.383896 273.830902,235.827881 272.749329,235.843903 
	C266.287811,235.939728 259.824127,235.891357 253.253311,235.891357 
	C257.806335,225.614426 286.516144,210.999878 307.684143,207.930359 
	C342.715607,202.850555 373.961975,210.591782 401.690918,235.857071 
	C393.095917,235.857071 385.831635,236.428284 378.729401,235.603851 
	C375.428864,235.220749 372.509857,231.999603 369.293152,230.301254 
	C366.803864,228.986954 364.120544,228.040115 361.156342,226.794952 
z"/>
<path fill="#F4F5EF" opacity="1.000000" stroke="none" 
	d="
M419.979248,417.118896 
	C421.288513,415.191864 422.657562,413.624023 424.316010,411.946106 
	C425.548737,411.997589 426.492126,412.159149 427.466492,412.326050 
	C425.438629,418.321838 423.615143,419.550293 419.979248,417.118896 
z"/>
<path fill="#F4F5EF" opacity="1.000000" stroke="none" 
	d="
M319.079315,454.966553 
	C319.519928,454.679138 320.050140,454.628357 320.809570,454.731812 
	C320.415497,454.991791 319.792175,455.097504 319.079315,454.966553 
z"/>
<path fill="#F4F5EF" opacity="1.000000" stroke="none" 
	d="
M225.467163,411.449158 
	C225.523148,411.415619 225.411163,411.482727 225.467163,411.449158 
z"/>
<path fill="#F9F9F3" opacity="1.000000" stroke="none" 
	d="
M229.316742,304.678040 
	C238.607834,331.626648 247.720718,358.222809 256.941589,384.781433 
	C259.158844,391.167725 260.195862,397.369476 255.696716,403.449799 
	C268.235962,413.968658 281.924194,421.580200 297.742645,426.694366 
	C307.106842,400.074188 316.448181,373.518921 325.789520,346.963623 
	C326.174774,346.941895 326.560028,346.920166 326.945282,346.898468 
	C336.278870,373.420166 345.612457,399.941895 355.035156,426.716797 
	C370.880646,421.823975 384.659271,414.459808 397.333923,403.535736 
	C391.635803,396.890900 393.982635,389.950226 396.451904,382.899811 
	C408.710754,347.897552 420.888031,312.866760 433.103973,277.849457 
	C433.482178,276.765320 433.968750,275.718964 434.438873,274.571777 
	C449.825745,298.062531 451.088959,355.710510 416.503265,398.801544 
	C379.343536,445.099640 309.841553,454.708221 259.750458,419.778320 
	C205.239273,381.766205 199.218826,311.188080 218.075287,273.340515 
	C222.008575,284.312347 225.593369,294.312073 229.316742,304.678040 
z"/>
<path fill="#F5F5F0" opacity="1.000000" stroke="none" 
	d="
M303.558777,365.600433 
	C298.556793,379.563721 293.702026,393.163483 288.405975,407.999481 
	C279.851013,384.546814 271.720642,362.258087 263.590240,339.969391 
	C263.991425,339.741211 264.392578,339.513031 264.793762,339.284882 
	C268.669922,344.809174 272.580658,350.309631 276.412628,355.864441 
	C280.352142,361.575104 284.214691,367.338806 288.563660,373.746338 
	C301.155365,338.172485 313.449585,303.439209 325.743774,268.705933 
	C326.115234,268.647217 326.486694,268.588531 326.858185,268.529846 
	C339.222504,303.426819 351.586823,338.323792 364.224792,373.993073 
	C372.065735,362.453552 379.465973,351.562683 386.866180,340.671814 
	C387.409851,340.951508 387.953522,341.231201 388.497192,341.510895 
	C380.646301,363.264557 372.795410,385.018250 364.513092,407.967316 
	C351.701324,372.536041 339.304352,338.251953 326.397034,302.556427 
	C318.502075,324.365051 311.104034,344.800964 303.558777,365.600433 
z"/>
<path fill="#F4F5F0" opacity="1.000000" stroke="none" 
	d="
M277.828979,312.180298 
	C279.328857,316.112427 280.161987,320.008331 282.136078,323.198120 
	C287.849487,332.430054 284.618927,340.785950 280.096741,349.875214 
	C275.887390,338.692078 271.859741,327.992096 267.832336,317.291962 
	C262.567810,303.304962 257.294525,289.321289 252.045944,275.328339 
	C250.868515,272.189209 249.144653,268.566071 253.769913,266.984802 
	C257.973450,265.547729 260.552032,267.874115 262.096466,271.911285 
	C267.199310,285.250214 272.474426,298.523193 277.828979,312.180298 
z"/>
<path fill="#F4F5F0" opacity="1.000000" stroke="none" 
	d="
M368.966309,327.991455 
	C376.042816,309.619049 383.005310,291.622589 389.976105,273.629364 
	C390.456512,272.389313 390.877350,271.102966 391.537292,269.960236 
	C393.262787,266.972656 395.969513,265.719635 399.144165,267.055267 
	C402.482544,268.459808 402.245178,271.234344 401.117157,274.232330 
	C393.912781,293.379761 386.793274,312.559143 379.621918,331.719055 
	C377.470978,337.465820 375.243835,343.184082 372.974884,349.115967 
	C368.104187,342.297760 366.544464,334.107971 368.966309,327.991455 
z"/>
</svg>