<svg version="1.1" id="Layer_1" xmlns="http://www.w3.org/2000/svg" xmlns:xlink="http://www.w3.org/1999/xlink" x="0px" y="0px"
	 width="100%" viewBox="0 0 456 456" enable-background="new 0 0 456 456" xml:space="preserve">
<path fill="#FFFFFF" opacity="1.000000" stroke="none" 
	d="
M272.000000,457.000000 
	C181.358032,457.000000 91.216064,457.000000 1.037051,457.000000 
	C1.037051,305.066345 1.037051,153.132690 1.037051,1.099510 
	C152.891968,1.099510 304.783997,1.099510 456.838013,1.099510 
	C456.838013,152.999863 456.838013,304.999908 456.838013,457.000000 
	C395.466003,457.000000 333.983002,457.000000 272.000000,457.000000 
M203.074448,89.057632 
	C182.142822,89.078903 161.211182,89.100166 139.529663,89.099625 
	C135.943939,90.004005 132.201553,90.527206 128.816040,91.918709 
	C125.347466,93.344345 122.275009,95.706360 118.947716,97.508118 
	C107.142906,103.900482 103.259956,115.304817 100.048813,128.058960 
	C100.021309,154.682602 99.993805,181.306244 99.090530,207.733978 
	C81.090416,207.999374 68.067741,221.091660 68.051712,239.142105 
	C68.007347,289.108734 68.032364,339.075470 68.041901,389.042145 
	C68.042198,390.625122 68.173309,392.208099 68.251633,393.975922 
	C70.543144,393.975922 72.202255,393.975922 73.861359,393.975922 
	C122.662163,393.975861 171.462967,393.980621 220.263763,393.973267 
	C238.515991,393.970520 248.746765,386.410583 254.523117,368.548340 
	C254.552689,367.913605 254.582260,367.278900 254.602844,365.887573 
	C254.657364,364.629730 254.711884,363.371887 255.380112,362.052551 
	C255.584991,362.035431 255.789856,362.018341 256.933167,362.000244 
	C278.911499,362.002502 300.889893,362.027252 322.868042,361.963715 
	C324.594177,361.958710 326.318512,361.338806 328.706635,360.940552 
	C332.821991,359.744476 337.272247,359.180359 340.980011,357.215271 
	C347.813171,353.593719 353.476868,348.578033 357.747314,341.774292 
	C362.162445,334.740082 364.677856,327.506409 364.604980,319.207458 
	C364.401001,295.982666 364.350464,272.756531 364.885712,249.689209 
	C365.544983,249.768860 366.204224,249.848495 367.260834,249.904800 
	C367.532257,249.840378 367.743134,249.690704 368.555756,249.066116 
	C382.919128,243.423813 389.999451,233.094177 390.003326,217.661362 
	C390.015778,168.374680 390.008545,119.087990 390.008881,69.801308 
	C390.008881,68.030052 390.008850,66.258797 390.008850,64.292198 
	C388.229248,64.152290 387.099609,63.986038 385.969940,63.985806 
	C335.517700,63.975323 285.065277,63.903519 234.613327,64.027237 
	C219.106400,64.065262 207.776215,73.568512 204.004898,89.014503 
	C204.004898,89.014503 204.012009,88.982933 203.074448,89.057632 
z"/>
<path fill="#FCFCF5" opacity="1.000000" stroke="none" 
	d="
M255.994736,362.001221 
	C255.789856,362.018341 255.584991,362.035431 254.632324,361.963287 
	C251.894028,361.804871 249.903519,361.675781 247.912994,361.675323 
	C200.846786,361.663971 153.780594,361.671722 106.714394,361.648285 
	C104.743431,361.647308 102.772606,361.379913 100.851501,360.752747 
	C100.910347,283.798737 100.923538,207.328674 100.891998,130.858627 
	C100.891487,129.624130 100.343895,128.389847 100.051605,127.155464 
	C103.259956,115.304817 107.142906,103.900482 118.947716,97.508118 
	C122.275009,95.706360 125.347466,93.344345 128.816040,91.918709 
	C132.201553,90.527206 135.943939,90.004005 140.183105,89.367737 
	C161.154785,89.706261 181.473022,89.785858 201.791336,89.810326 
	C202.531219,89.811218 203.271774,89.270981 204.012009,88.982933 
	C204.012009,88.982933 204.004898,89.014503 204.451645,89.115082 
	C206.892181,89.285660 208.885956,89.416267 210.879761,89.416763 
	C257.352173,89.428261 303.824554,89.425659 350.296967,89.425667 
	C354.743256,89.425667 359.189575,89.425667 364.239380,89.425667 
	C364.239380,143.367462 364.239380,196.449203 364.239380,249.530945 
	C364.350464,272.756531 364.401001,295.982666 364.604980,319.207458 
	C364.677856,327.506409 362.162445,334.740082 357.747314,341.774292 
	C353.476868,348.578033 347.813171,353.593719 340.980011,357.215271 
	C337.272247,359.180359 332.821991,359.744476 327.901611,360.966858 
	C305.288879,360.996246 283.481049,360.974731 261.673584,361.045715 
	C259.779602,361.051880 257.887634,361.668274 255.994736,362.001221 
M181.164993,125.715027 
	C124.820999,154.766373 103.898125,223.556305 133.641754,281.961243 
	C160.830154,335.348694 230.005692,356.777405 284.641510,328.736847 
	C339.940765,300.355774 361.917633,231.334427 333.514954,175.243256 
	C305.044739,119.018669 238.074997,96.989433 181.164993,125.715027 
z"/>
<path fill="#0358FB" opacity="1.000000" stroke="none" 
	d="
M100.801712,361.236664 
	C102.772606,361.379913 104.743431,361.647308 106.714394,361.648285 
	C153.780594,361.671722 200.846786,361.663971 247.912994,361.675323 
	C249.903519,361.675781 251.894028,361.804871 254.325470,361.994019 
	C254.711884,363.371887 254.657364,364.629730 254.393188,366.510620 
	C254.145294,367.768524 254.107040,368.403442 254.068787,369.038330 
	C248.746765,386.410583 238.515991,393.970520 220.263763,393.973267 
	C171.462967,393.980621 122.662163,393.975861 73.861359,393.975922 
	C72.202255,393.975922 70.543144,393.975922 68.251633,393.975922 
	C68.173309,392.208099 68.042198,390.625122 68.041901,389.042145 
	C68.032364,339.075470 68.007347,289.108734 68.051712,239.142105 
	C68.067741,221.091660 81.090416,207.999374 99.506744,208.307327 
	C99.919724,257.942383 99.907440,307.004089 99.950676,356.065765 
	C99.952194,357.789642 100.505554,359.513031 100.801712,361.236664 
z"/>
<path fill="#FCC005" opacity="1.000000" stroke="none" 
	d="
M364.562561,249.610077 
	C364.239380,196.449203 364.239380,143.367462 364.239380,89.425667 
	C359.189575,89.425667 354.743256,89.425667 350.296967,89.425667 
	C303.824554,89.425659 257.352173,89.428261 210.879761,89.416763 
	C208.885956,89.416267 206.892181,89.285660 204.435486,89.114059 
	C207.776215,73.568512 219.106400,64.065262 234.613327,64.027237 
	C285.065277,63.903519 335.517700,63.975323 385.969940,63.985806 
	C387.099609,63.986038 388.229248,64.152290 390.008850,64.292198 
	C390.008850,66.258797 390.008881,68.030052 390.008881,69.801308 
	C390.008545,119.087990 390.015778,168.374680 390.003326,217.661362 
	C389.999451,233.094177 382.919128,243.423813 368.017273,249.236954 
	C367.170593,249.459137 366.965485,249.632584 366.863495,249.928131 
	C366.204224,249.848495 365.544983,249.768860 364.562561,249.610077 
z"/>
<path fill="#B1CEF4" opacity="1.000000" stroke="none" 
	d="
M100.851501,360.752747 
	C100.505554,359.513031 99.952194,357.789642 99.950676,356.065765 
	C99.907440,307.004089 99.919724,257.942383 99.944626,208.405273 
	C99.993805,181.306244 100.021309,154.682602 100.050209,127.607208 
	C100.343895,128.389847 100.891487,129.624130 100.891998,130.858627 
	C100.923538,207.328674 100.910347,283.798737 100.851501,360.752747 
z"/>
<path fill="#F0F2EE" opacity="1.000000" stroke="none" 
	d="
M256.463959,362.000732 
	C257.887634,361.668274 259.779602,361.051880 261.673584,361.045715 
	C283.481049,360.974731 305.288879,360.996246 327.570129,360.998932 
	C326.318512,361.338806 324.594177,361.958710 322.868042,361.963715 
	C300.889893,362.027252 278.911499,362.002502 256.463959,362.000732 
z"/>
<path fill="#F0DC93" opacity="1.000000" stroke="none" 
	d="
M203.543228,89.020279 
	C203.271774,89.270981 202.531219,89.811218 201.791336,89.810326 
	C181.473022,89.785858 161.154785,89.706261 140.558044,89.378647 
	C161.211182,89.100166 182.142822,89.078903 203.543228,89.020279 
z"/>
<path fill="#B1CEF4" opacity="1.000000" stroke="none" 
	d="
M254.295959,368.793335 
	C254.107040,368.403442 254.145294,367.768524 254.397690,366.888916 
	C254.582260,367.278900 254.552689,367.913605 254.295959,368.793335 
z"/>
<path fill="#FCFCF5" opacity="1.000000" stroke="none" 
	d="
M367.062164,249.916473 
	C366.965485,249.632584 367.170593,249.459137 367.686157,249.431793 
	C367.743134,249.690704 367.532257,249.840378 367.062164,249.916473 
z"/>
<path fill="#1F2326" opacity="1.000000" stroke="none" 
	d="
M181.487549,125.527992 
	C238.074997,96.989433 305.044739,119.018669 333.514954,175.243256 
	C361.917633,231.334427 339.940765,300.355774 284.641510,328.736847 
	C230.005692,356.777405 160.830154,335.348694 133.641754,281.961243 
	C103.898125,223.556305 124.820999,154.766373 181.487549,125.527992 
M309.202148,297.641113 
	C312.498444,293.325287 316.207947,289.262115 319.025146,284.653442 
	C340.031891,250.287857 342.393524,214.707031 324.068512,178.669250 
	C300.305328,131.936783 249.999512,112.791107 202.769058,127.151154 
	C140.206940,146.172684 111.000290,219.662537 142.411270,277.281616 
	C175.981583,338.861725 259.403229,351.211243 309.202148,297.641113 
z"/>
<path fill="#F3F4EE" opacity="1.000000" stroke="none" 
	d="
M308.970093,297.918915 
	C259.403229,351.211243 175.981583,338.861725 142.411270,277.281616 
	C111.000290,219.662537 140.206940,146.172684 202.769058,127.151154 
	C249.999512,112.791107 300.305328,131.936783 324.068512,178.669250 
	C342.393524,214.707031 340.031891,250.287857 319.025146,284.653442 
	C316.207947,289.262115 312.498444,293.325287 308.970093,297.918915 
M258.013733,213.356934 
	C257.897644,213.476349 257.797394,213.621841 257.659637,213.705658 
	C257.573151,213.758301 257.340393,213.753296 257.325500,213.714951 
	C255.406204,208.779404 253.241058,203.920410 251.650421,198.880173 
	C248.517166,188.951904 245.780472,178.898636 242.663193,168.965027 
	C242.254288,167.662003 240.646561,165.925262 239.466003,165.819519 
	C235.171265,165.434937 230.795715,165.390396 226.509491,165.813705 
	C225.212341,165.941833 223.458069,167.798920 223.021469,169.207565 
	C220.871445,176.144653 219.317841,183.268097 217.126480,190.190506 
	C214.591461,198.198471 211.610870,206.065369 208.334824,215.384262 
	C204.934113,206.458923 202.074478,198.889847 199.165421,191.339813 
	C196.996506,185.710663 196.086075,180.354172 203.567001,175.901917 
	C188.890945,175.901917 175.753250,176.397430 162.675232,175.727646 
	C153.962112,175.281387 149.498993,179.181900 146.368301,186.585587 
	C137.446854,207.683716 135.471771,229.256348 140.745087,251.590500 
	C154.808304,311.152771 223.031509,342.417755 276.905762,313.461243 
	C307.293823,297.128143 323.830231,270.847107 327.746429,236.817200 
	C329.889099,218.198639 326.098694,200.378174 317.857635,183.522247 
	C315.265015,178.219421 311.479614,175.513412 305.220947,175.780731 
	C295.905090,176.178604 286.560150,175.895691 277.227570,175.900574 
	C272.693451,175.902954 268.159302,175.900986 262.323547,175.900986 
	C268.758789,180.209854 268.928680,185.034103 266.936554,190.331818 
	C264.125366,197.807724 261.261993,205.264008 258.013733,213.356934 
M183.639313,155.108292 
	C218.380280,131.618851 263.093842,134.952438 292.381989,163.775925 
	C297.352478,168.667572 302.188049,168.441330 308.944275,167.900101 
	C287.156860,140.581924 259.749512,127.846123 225.953796,130.171478 
	C197.676453,132.117142 174.803329,144.739563 156.925720,167.891495 
	C164.224823,168.810730 169.940506,168.970749 174.325851,162.927612 
	C176.501495,159.929504 180.103729,157.966660 183.639313,155.108292 
M248.300278,158.988724 
	C253.747330,160.995392 259.770630,162.121674 264.503479,165.219528 
	C271.237823,169.627426 277.983093,167.729080 285.531006,168.221024 
	C256.027924,137.338013 200.012573,144.125961 180.686996,168.777100 
	C186.746201,168.205078 193.029266,169.322296 197.314499,166.902100 
	C213.230453,157.913132 229.827271,155.766403 248.300278,158.988724 
z"/>
<path fill="#1D2124" opacity="1.000000" stroke="none" 
	d="
M258.217346,213.042816 
	C261.261993,205.264008 264.125366,197.807724 266.936554,190.331818 
	C268.928680,185.034103 268.758789,180.209854 262.323547,175.900986 
	C268.159302,175.900986 272.693451,175.902954 277.227570,175.900574 
	C286.560150,175.895691 295.905090,176.178604 305.220947,175.780731 
	C311.479614,175.513412 315.265015,178.219421 317.857635,183.522247 
	C326.098694,200.378174 329.889099,218.198639 327.746429,236.817200 
	C323.830231,270.847107 307.293823,297.128143 276.905762,313.461243 
	C223.031509,342.417755 154.808304,311.152771 140.745087,251.590500 
	C135.471771,229.256348 137.446854,207.683716 146.368301,186.585587 
	C149.498993,179.181900 153.962112,175.281387 162.675232,175.727646 
	C175.753250,176.397430 188.890945,175.901917 203.567001,175.901917 
	C196.086075,180.354172 196.996506,185.710663 199.165421,191.339813 
	C202.074478,198.889847 204.934113,206.458923 208.334824,215.384262 
	C211.610870,206.065369 214.591461,198.198471 217.126480,190.190506 
	C219.317841,183.268097 220.871445,176.144653 223.021469,169.207565 
	C223.458069,167.798920 225.212341,165.941833 226.509491,165.813705 
	C230.795715,165.390396 235.171265,165.434937 239.466003,165.819519 
	C240.646561,165.925262 242.254288,167.662003 242.663193,168.965027 
	C245.780472,178.898636 248.517166,188.951904 251.650421,198.880173 
	C253.241058,203.920410 255.406204,208.779404 257.325500,213.714951 
	C257.340393,213.753296 257.573151,213.758301 257.659637,213.705658 
	C257.797394,213.621841 257.897644,213.476349 258.217346,213.042816 
M238.396729,314.223846 
	C307.069366,309.246521 330.309875,235.048935 310.026733,195.553345 
	C309.031891,198.081787 308.127838,200.161896 307.385956,202.298279 
	C299.585938,224.759598 291.823059,247.233795 284.023041,269.695099 
	C281.916229,275.761963 278.538879,281.707947 284.005157,288.964905 
	C273.584991,294.642517 263.919800,299.908752 253.672272,305.492279 
	C246.586212,285.386597 239.990204,266.671387 233.394180,247.956131 
	C233.009308,247.980530 232.624451,248.004929 232.239578,248.029312 
	C225.658585,266.715179 219.077591,285.401031 212.425888,304.287659 
	C201.153229,300.618652 191.366989,295.332397 183.664993,287.612732 
	C184.072433,283.101837 184.502686,278.588165 183.193604,274.653137 
	C175.479935,251.466354 167.372040,228.410538 159.366409,205.321213 
	C158.282883,202.196182 157.028046,199.130554 155.852524,196.037415 
	C144.567291,223.005051 146.700562,249.088638 161.364197,273.296783 
	C178.421265,301.456299 204.237122,315.151611 238.396729,314.223846 
M247.160202,255.396072 
	C251.229858,266.687164 255.299515,277.978241 259.533051,289.724060 
	C265.152222,280.574249 275.387299,249.280045 273.925873,245.814972 
	C269.308716,252.645432 264.757263,259.378693 259.786407,266.732422 
	C250.722900,241.140839 242.037888,216.617950 233.352890,192.095078 
	C232.987747,192.107971 232.622620,192.120865 232.257492,192.133743 
	C223.551682,216.686035 214.845871,241.238312 205.943909,266.343781 
	C200.444275,258.576447 195.430359,251.495087 190.416428,244.413757 
	C189.927124,244.752930 189.437836,245.092102 188.948532,245.431274 
	C194.404419,260.092743 199.860306,274.754242 205.801208,290.719086 
	C214.990036,265.263489 223.628357,241.332932 232.793915,215.941788 
	C237.859314,229.789352 242.404556,242.214981 247.160202,255.396072 
M280.909576,209.486435 
	C282.653534,204.819778 284.628235,200.219330 285.998138,195.445343 
	C286.399017,194.048248 285.079559,192.157501 284.548615,190.492996 
	C282.835602,191.132446 280.916382,191.484772 279.483185,192.513901 
	C278.552368,193.182312 278.276520,194.816742 277.798676,196.053680 
	C273.365265,207.530502 269.436737,219.235657 264.350952,230.414734 
	C261.286285,237.151199 262.538544,242.714691 265.895264,249.559143 
	C271.003296,235.950027 275.831146,223.087372 280.909576,209.486435 
M199.662918,248.339218 
	C204.701294,242.480072 203.936295,236.483871 201.048584,229.763000 
	C195.999863,218.012604 191.656921,205.958572 187.038284,194.024033 
	C185.932220,191.165985 184.051117,189.343781 180.940125,190.596909 
	C177.873138,191.832306 179.049362,194.201599 179.916199,196.491074 
	C186.388351,213.585052 192.784500,230.707809 199.662918,248.339218 
z"/>
<path fill="#202426" opacity="1.000000" stroke="none" 
	d="
M183.349945,155.321869 
	C180.103729,157.966660 176.501495,159.929504 174.325851,162.927612 
	C169.940506,168.970749 164.224823,168.810730 156.925720,167.891495 
	C174.803329,144.739563 197.676453,132.117142 225.953796,130.171478 
	C259.749512,127.846123 287.156860,140.581924 308.944275,167.900101 
	C302.188049,168.441330 297.352478,168.667572 292.381989,163.775925 
	C263.093842,134.952438 218.380280,131.618851 183.349945,155.321869 
z"/>
<path fill="#1F2326" opacity="1.000000" stroke="none" 
	d="
M247.885010,158.911957 
	C229.827271,155.766403 213.230453,157.913132 197.314499,166.902100 
	C193.029266,169.322296 186.746201,168.205078 180.686996,168.777100 
	C200.012573,144.125961 256.027924,137.338013 285.531006,168.221024 
	C277.983093,167.729080 271.237823,169.627426 264.503479,165.219528 
	C259.770630,162.121674 253.747330,160.995392 247.885010,158.911957 
z"/>
<path fill="#F8F8F3" opacity="1.000000" stroke="none" 
	d="
M237.910446,314.246765 
	C204.237122,315.151611 178.421265,301.456299 161.364197,273.296783 
	C146.700562,249.088638 144.567291,223.005051 155.852524,196.037415 
	C157.028046,199.130554 158.282883,202.196182 159.366409,205.321213 
	C167.372040,228.410538 175.479935,251.466354 183.193604,274.653137 
	C184.502686,278.588165 184.072433,283.101837 183.664993,287.612732 
	C191.366989,295.332397 201.153229,300.618652 212.425888,304.287659 
	C219.077591,285.401031 225.658585,266.715179 232.239578,248.029312 
	C232.624451,248.004929 233.009308,247.980530 233.394180,247.956131 
	C239.990204,266.671387 246.586212,285.386597 253.672272,305.492279 
	C263.919800,299.908752 273.584991,294.642517 284.005157,288.964905 
	C278.538879,281.707947 281.916229,275.761963 284.023041,269.695099 
	C291.823059,247.233795 299.585938,224.759598 307.385956,202.298279 
	C308.127838,200.161896 309.031891,198.081787 310.026733,195.553345 
	C330.309875,235.048935 307.069366,309.246521 237.910446,314.246765 
z"/>
<path fill="#F3F3EE" opacity="1.000000" stroke="none" 
	d="
M247.054993,255.018341 
	C242.404556,242.214981 237.859314,229.789352 232.793915,215.941788 
	C223.628357,241.332932 214.990036,265.263489 205.801208,290.719086 
	C199.860306,274.754242 194.404419,260.092743 188.948532,245.431274 
	C189.437836,245.092102 189.927124,244.752930 190.416428,244.413757 
	C195.430359,251.495087 200.444275,258.576447 205.943909,266.343781 
	C214.845871,241.238312 223.551682,216.686035 232.257492,192.133743 
	C232.622620,192.120865 232.987747,192.107971 233.352890,192.095078 
	C242.037888,216.617950 250.722900,241.140839 259.786407,266.732422 
	C264.757263,259.378693 269.308716,252.645432 273.925873,245.814972 
	C275.387299,249.280045 265.152222,280.574249 259.533051,289.724060 
	C255.299515,277.978241 251.229858,266.687164 247.054993,255.018341 
z"/>
<path fill="#F0F1EC" opacity="1.000000" stroke="none" 
	d="
M280.784302,209.855560 
	C275.831146,223.087372 271.003296,235.950027 265.895264,249.559143 
	C262.538544,242.714691 261.286285,237.151199 264.350952,230.414734 
	C269.436737,219.235657 273.365265,207.530502 277.798676,196.053680 
	C278.276520,194.816742 278.552368,193.182312 279.483185,192.513901 
	C280.916382,191.484772 282.835602,191.132446 284.548615,190.492996 
	C285.079559,192.157501 286.399017,194.048248 285.998138,195.445343 
	C284.628235,200.219330 282.653534,204.819778 280.784302,209.855560 
z"/>
<path fill="#F2F3ED" opacity="1.000000" stroke="none" 
	d="
M199.433685,248.080383 
	C192.784500,230.707809 186.388351,213.585052 179.916199,196.491074 
	C179.049362,194.201599 177.873138,191.832306 180.940125,190.596909 
	C184.051117,189.343781 185.932220,191.165985 187.038284,194.024033 
	C191.656921,205.958572 195.999863,218.012604 201.048584,229.763000 
	C203.936295,236.483871 204.701294,242.480072 199.433685,248.080383 
z"/>
</svg>